<svg width="17" height="16" viewBox="0 0 17 16" fill="none" xmlns="http://www.w3.org/2000/svg">
<path d="M2.1025 4.70721L8.5001 7.90561L14.8977 4.70721C14.874 4.29957 14.6954 3.9164 14.3984 3.63619C14.1013 3.35598 13.7084 3.19994 13.3001 3.20001H3.7001C3.29177 3.19994 2.89886 3.35598 2.60184 3.63619C2.30482 3.9164 2.12618 4.29957 2.1025 4.70721Z" fill="#1E1F26"/>
<path d="M14.9001 6.49441L8.5001 9.69441L2.1001 6.49441V11.2C2.1001 11.6244 2.26867 12.0313 2.56873 12.3314C2.86878 12.6314 3.27575 12.8 3.7001 12.8H13.3001C13.7244 12.8 14.1314 12.6314 14.4315 12.3314C14.7315 12.0313 14.9001 11.6244 14.9001 11.2V6.49441Z" fill="#1E1F26"/>
</svg>
